<svg width="200" height="48" viewBox="0 0 200 48" fill="none" xmlns="http://www.w3.org/2000/svg">
<path d="M63.56 41.994C62.2267 41.994 61.04 41.874 60 41.634C58.96 41.394 58.08 41.0607 57.36 40.634C56.64 40.2073 56.08 39.6873 55.68 39.074C55.3067 38.4873 55.12 37.8207 55.12 37.074C55.12 36.434 55.28 35.834 55.6 35.274C55.92 34.714 56.3467 34.234 56.88 33.834C57.44 33.4073 58.04 33.074 58.68 32.834L60.72 33.674C60.3733 33.9407 60.0267 34.2073 59.68 34.474C59.36 34.714 59.0933 34.9807 58.88 35.274C58.6933 35.594 58.6 35.9673 58.6 36.394C58.6 36.7407 58.7333 37.0473 59 37.314C59.2667 37.5807 59.64 37.794 60.12 37.954C60.6 38.1407 61.16 38.274 61.8 38.354C62.44 38.434 63.1467 38.474 63.92 38.474C64.9333 38.474 65.7867 38.3807 66.48 38.194C67.1733 38.0073 67.7067 37.7407 68.08 37.394C68.4533 37.074 68.64 36.7007 68.64 36.274C68.64 35.874 68.5333 35.5407 68.32 35.274C68.1067 35.034 67.72 34.8607 67.16 34.754C66.6 34.6473 65.8133 34.594 64.8 34.594C63.9467 34.594 63.1067 34.554 62.28 34.474C61.4533 34.394 60.6667 34.2607 59.92 34.074C59.2 33.8873 58.56 33.6473 58 33.354C57.44 33.034 57 32.6473 56.68 32.194C56.3867 31.7407 56.24 31.194 56.24 30.554C56.24 29.674 56.4933 28.914 57 28.274C57.5333 27.634 58.1733 27.0473 58.92 26.514L61 27.714C60.7333 27.954 60.4933 28.154 60.28 28.314C60.0933 28.474 59.9467 28.634 59.84 28.794C59.7333 28.9273 59.68 29.1273 59.68 29.394C59.68 29.714 59.88 29.9807 60.28 30.194C60.7067 30.4073 61.3867 30.5673 62.32 30.674C63.28 30.7807 64.52 30.834 66.04 30.834C67.24 30.834 68.24 30.9673 69.04 31.234C69.84 31.474 70.48 31.834 70.96 32.314C71.44 32.7673 71.7867 33.3007 72 33.914C72.24 34.5007 72.36 35.1273 72.36 35.794C72.36 36.594 72.1867 37.354 71.84 38.074C71.4933 38.8207 70.96 39.4873 70.24 40.074C69.52 40.6607 68.6 41.1273 67.48 41.474C66.3867 41.8207 65.08 41.994 63.56 41.994ZM63.2 28.554C61.8933 28.554 60.7067 28.274 59.64 27.714C58.6 27.154 57.7733 26.394 57.16 25.434C56.5733 24.4473 56.28 23.354 56.28 22.154C56.28 20.954 56.5733 19.874 57.16 18.914C57.7733 17.9273 58.6 17.1406 59.64 16.554C60.7067 15.9673 61.8933 15.674 63.2 15.674C64.5333 15.674 65.7067 15.9673 66.72 16.554C67.76 17.1406 68.5733 17.9273 69.16 18.914C69.7733 19.874 70.08 20.954 70.08 22.154C70.08 23.354 69.7733 24.4473 69.16 25.434C68.5733 26.394 67.76 27.154 66.72 27.714C65.7067 28.274 64.5333 28.554 63.2 28.554ZM63.16 25.274C63.7467 25.274 64.2667 25.1407 64.72 24.874C65.2 24.6073 65.5733 24.234 65.84 23.754C66.1333 23.274 66.28 22.7407 66.28 22.154C66.28 21.5673 66.1333 21.0473 65.84 20.594C65.5733 20.1407 65.2 19.7807 64.72 19.514C64.2667 19.2473 63.7467 19.114 63.16 19.114C62.6267 19.114 62.12 19.2607 61.64 19.554C61.1867 19.8207 60.8133 20.1807 60.52 20.634C60.2267 21.0873 60.08 21.594 60.08 22.154C60.08 22.714 60.2133 23.234 60.48 23.714C60.7733 24.194 61.1467 24.5807 61.6 24.874C62.08 25.1407 62.6 25.274 63.16 25.274ZM68.96 19.634L67.24 17.514C67.9867 16.9006 68.84 16.434 69.8 16.114C70.76 15.794 71.8 15.674 72.92 15.754L73.36 18.874C72.56 18.714 71.7733 18.7007 71 18.834C70.2267 18.9673 69.5467 19.234 68.96 19.634ZM83.96 35.234C82.3067 35.234 80.8 34.834 79.44 34.034C78.1067 33.2073 77.0533 32.0607 76.28 30.594C75.5067 29.1273 75.12 27.434 75.12 25.514C75.12 23.674 75.5067 22.0207 76.28 20.554C77.0533 19.0873 78.1067 17.9273 79.44 17.074C80.8 16.2207 82.3067 15.794 83.96 15.794C85.64 15.794 87.1467 16.2207 88.48 17.074C89.84 17.9273 90.9067 19.0873 91.68 20.554C92.48 22.0207 92.88 23.674 92.88 25.514C92.88 27.434 92.48 29.1273 91.68 30.594C90.9067 32.0607 89.84 33.2073 88.48 34.034C87.1467 34.834 85.64 35.234 83.96 35.234ZM83.96 31.634C84.84 31.634 85.6 31.3807 86.24 30.874C86.88 30.3407 87.3867 29.6207 87.76 28.714C88.16 27.7807 88.36 26.714 88.36 25.514C88.36 24.2607 88.16 23.1807 87.76 22.274C87.3867 21.3673 86.88 20.674 86.24 20.194C85.6 19.6873 84.84 19.434 83.96 19.434C83.16 19.434 82.4267 19.6873 81.76 20.194C81.12 20.674 80.6 21.3673 80.2 22.274C79.8267 23.1807 79.64 24.2607 79.64 25.514C79.64 26.714 79.8267 27.7807 80.2 28.714C80.5733 29.6207 81.08 30.3407 81.72 30.874C82.3867 31.3807 83.1333 31.634 83.96 31.634ZM155.2 34.834V16.234H159V17.594C159.32 17.1673 159.653 16.8207 160 16.554C160.347 16.2873 160.707 16.1007 161.08 15.994C161.48 15.8607 161.867 15.794 162.24 15.794C162.693 15.794 163.12 15.874 163.52 16.034C163.92 16.1673 164.28 16.4073 164.6 16.754C164.947 17.074 165.213 17.5007 165.4 18.034C165.693 17.5273 166.027 17.114 166.4 16.794C166.773 16.4473 167.2 16.194 167.68 16.034C168.187 15.874 168.733 15.794 169.32 15.794C170.013 15.794 170.6 15.914 171.08 16.154C171.56 16.394 171.947 16.7406 172.24 17.194C172.56 17.6473 172.787 18.2073 172.92 18.874C173.053 19.5407 173.12 20.2873 173.12 21.114V34.834H169.2V22.074C169.2 21.274 169.16 20.6607 169.08 20.234C169 19.7807 168.88 19.474 168.72 19.314C168.56 19.1273 168.347 19.034 168.08 19.034C167.733 19.034 167.4 19.2073 167.08 19.554C166.76 19.874 166.493 20.3273 166.28 20.914C166.093 21.474 166 22.1407 166 22.914V34.834H162.32V22.194C162.32 20.914 162.227 20.0607 162.04 19.634C161.853 19.2073 161.507 18.994 161 18.994C160.76 18.994 160.52 19.074 160.28 19.234C160.067 19.394 159.867 19.634 159.68 19.954C159.52 20.2473 159.387 20.634 159.28 21.114C159.173 21.5673 159.12 22.0873 159.12 22.674V34.834H155.2ZM184.84 35.274C183.507 35.274 182.267 35.0607 181.12 34.634C180 34.2073 179.013 33.594 178.16 32.794C177.333 31.9673 176.693 30.954 176.24 29.754C175.787 28.554 175.56 27.194 175.56 25.674C175.56 24.1273 175.787 22.7407 176.24 21.514C176.693 20.2873 177.307 19.2473 178.08 18.394C178.88 17.5407 179.813 16.9007 180.88 16.474C181.947 16.0207 183.093 15.794 184.32 15.794C185.413 15.794 186.44 15.9807 187.4 16.354C188.36 16.7273 189.2 17.3007 189.92 18.074C190.667 18.8206 191.253 19.7673 191.68 20.914C192.107 22.034 192.32 23.3407 192.32 24.834C192.32 25.1007 192.307 25.4207 192.28 25.794C192.28 26.1673 192.267 26.4873 192.24 26.754H179.92C179.973 27.634 180.147 28.394 180.44 29.034C180.733 29.6473 181.12 30.154 181.6 30.554C182.08 30.954 182.613 31.2607 183.2 31.474C183.787 31.6607 184.4 31.754 185.04 31.754C185.6 31.754 186.133 31.7007 186.64 31.594C187.173 31.4873 187.667 31.3007 188.12 31.034C188.6 30.7673 189.053 30.4207 189.48 29.994L191.8 32.234C191.213 32.9273 190.547 33.514 189.8 33.994C189.08 34.4473 188.293 34.7673 187.44 34.954C186.613 35.1673 185.747 35.274 184.84 35.274ZM180 23.354H187.92C187.92 22.714 187.827 22.1407 187.64 21.634C187.48 21.1273 187.24 20.7007 186.92 20.354C186.6 20.0073 186.2 19.754 185.72 19.594C185.267 19.4073 184.733 19.314 184.12 19.314C183.613 19.314 183.12 19.394 182.64 19.554C182.187 19.6873 181.773 19.9273 181.4 20.274C181.027 20.6207 180.72 21.0473 180.48 21.554C180.24 22.0607 180.08 22.6607 180 23.354Z" fill="#34BC85"/>
<path d="M96.52 34.834V31.274H101.76V11.554H96.76V7.99398H106.32V31.274H111.52V34.834H96.52ZM119.04 41.874C118.16 41.874 117.36 41.714 116.64 41.394C115.947 41.1007 115.267 40.6873 114.6 40.154L116.16 37.034L116.32 36.674L116.68 36.834C116.76 37.0473 116.853 37.2473 116.96 37.434C117.093 37.6207 117.333 37.834 117.68 38.074C117.867 38.1807 118.067 38.2607 118.28 38.314C118.52 38.3673 118.773 38.394 119.04 38.394C119.573 38.394 120.027 38.2473 120.4 37.954C120.8 37.6607 121.16 37.2073 121.48 36.594C121.827 35.9807 122.16 35.194 122.48 34.234L126.52 22.834C126.92 21.6873 127.253 20.5807 127.52 19.514C127.813 18.4473 127.987 17.354 128.04 16.234H132.24C132.133 17.434 131.853 18.7007 131.4 20.034C130.947 21.3407 130.493 22.6073 130.04 23.834L125.44 36.474C124.693 38.4473 123.787 39.834 122.72 40.634C121.68 41.4607 120.453 41.874 119.04 41.874ZM115.24 16.234H119.76L125.24 30.434L122.88 35.274L115.24 16.234ZM135.12 34.834L141.56 25.514L135.2 16.234H139.96L143.96 21.994L147.68 16.234H152.24L146.36 25.354L153.04 34.834H148.16L143.96 28.914L139.96 34.834H135.12Z" fill="#EC4899"/>
<path d="M33.8868 9.01202C33.8868 12.8847 30.7475 16.024 26.8748 16.024C23.0022 16.024 19.8628 12.8847 19.8628 9.01202C19.8628 5.13939 23.0022 2 26.8748 2C30.7475 2 33.8868 5.13939 33.8868 9.01202Z" fill="#EC4899"/>
<path d="M23.0951 39.8762C10.34 39.8762 0 29.5361 0 16.781V5.69536C12.7551 5.69536 23.0957 16.0354 23.0957 28.7905L23.0951 39.8762Z" fill="#34BC85"/>
<path d="M48.5002 13.0857C35.7451 13.0857 25.405 23.4258 25.405 36.1809V47.2666C38.1601 47.2666 48.5002 36.9265 48.5002 24.1714V13.0857Z" fill="#34BC85"/>
</svg>
